<?xml version="1.0" encoding="UTF-8" standalone="no"?>
<!DOCTYPE svg PUBLIC "-//W3C//DTD SVG 1.1//EN"
 "http://www.w3.org/Graphics/SVG/1.1/DTD/svg11.dtd">
<!-- Generated by graphviz version 6.0.1 (20220911.1526)
 -->
<!-- Title: G Pages: 1 -->
<svg width="352pt" height="351pt"
 viewBox="0.00 0.00 352.00 351.00" xmlns="http://www.w3.org/2000/svg" xmlns:xlink="http://www.w3.org/1999/xlink">
<g id="graph0" class="graph" transform="scale(1 1) rotate(0) translate(4 347)">
<title>G</title>
<polygon fill="white" stroke="none" points="-4,4 -4,-347 348,-347 348,4 -4,4"/>
<!-- n0in1 -->
<!-- n0in2 -->
<!-- n0in1&#45;&gt;n0in2 -->
<!-- n1 -->
<!-- load_bln -->
<g id="n1" class="node">
<title>n1</title>
<polygon fill="none" stroke="black" points="44,-280.5 44,-305.5 102,-305.5 102,-280.5 44,-280.5"/>
<text text-anchor="start" x="49" y="-289.3" font-family="Serif" font-size="14.00">load_bln</text>
</g>
<!-- n0in1&#45;&gt;n1 -->
<!-- File -->
<g id="e1" class="edge">
<title>n0in1:s&#45;&gt;n1:n</title>
<path fill="none" stroke="black" d="M95,-342C95,-325.15 77.24,-324.65 73.63,-311.13"/>
<polygon fill="black" stroke="black" points="75.35,-310.75 73,-306 71.88,-311.18 75.35,-310.75"/>
</g>
<!-- n0in3 -->
<!-- n0in2&#45;&gt;n0in3 -->
<!-- n5 -->
<!-- ODEProblem -->
<g id="n5" class="node">
<title>n5</title>
<polygon fill="none" stroke="black" points="115,-97.5 115,-122.5 211,-122.5 211,-97.5 115,-97.5"/>
<text text-anchor="start" x="125.5" y="-106.3" font-family="Serif" font-size="14.00">ODEProblem</text>
</g>
<!-- n0in2&#45;&gt;n5 -->
<!-- StateVect -->
<g id="e4" class="edge">
<title>n0in2:s&#45;&gt;n5:n</title>
<path fill="none" stroke="black" d="M144,-342C144,-246.33 150.76,-221.26 150.99,-128.07"/>
<polygon fill="black" stroke="black" points="152.74,-128 151,-123 149.24,-128 152.74,-128"/>
</g>
<!-- n0in4 -->
<!-- n0in3&#45;&gt;n0in4 -->
<!-- n4 -->
<!-- form_tv_params_s2q4 -->
<g id="n4" class="node">
<title>n4</title>
<polygon fill="none" stroke="black" points="210,-280.5 210,-305.5 344,-305.5 344,-280.5 210,-280.5"/>
<text text-anchor="start" x="215" y="-289.3" font-family="Serif" font-size="14.00">form_tv_params_s2q4</text>
</g>
<!-- n0in3&#45;&gt;n4 -->
<!-- RateVect -->
<g id="e2" class="edge">
<title>n0in3:s&#45;&gt;n4:n</title>
<path fill="none" stroke="black" d="M206,-342C206,-321.03 236.91,-327.49 242.23,-311.23"/>
<polygon fill="black" stroke="black" points="244,-311.2 243,-306 240.54,-310.69 244,-311.2"/>
</g>
<!-- n0in5 -->
<!-- n0in4&#45;&gt;n0in5 -->
<!-- n0in4&#45;&gt;n5 -->
<!-- TSpan -->
<g id="e5" class="edge">
<title>n0in4:s&#45;&gt;n5:n</title>
<path fill="none" stroke="black" d="M248,-342C248,-315.69 214.28,-328.71 201,-306 160.42,-236.61 174.36,-206.46 174.98,-128.22"/>
<polygon fill="black" stroke="black" points="176.73,-128.01 175,-123 173.23,-127.99 176.73,-128.01"/>
</g>
<!-- n0in5&#45;&gt;n4 -->
<!-- CntrlParamVect -->
<g id="e3" class="edge">
<title>n0in5:s&#45;&gt;n4:n</title>
<path fill="none" stroke="black" d="M300,-342C300,-327.1 308.73,-323.46 310.63,-311.02"/>
<polygon fill="black" stroke="black" points="312.38,-311.11 311,-306 308.89,-310.86 312.38,-311.11"/>
</g>
<!-- n0out1 -->
<!-- n2 -->
<!-- convert_bln_to_lpn -->
<g id="n2" class="node">
<title>n2</title>
<polygon fill="none" stroke="black" points="0,-219.5 0,-244.5 116,-244.5 116,-219.5 0,-219.5"/>
<text text-anchor="start" x="5" y="-228.3" font-family="Serif" font-size="14.00">convert_bln_to_lpn</text>
</g>
<!-- n1&#45;&gt;n2 -->
<!-- BLN -->
<g id="e8" class="edge">
<title>n1:s&#45;&gt;n2:n</title>
<path fill="none" stroke="black" d="M73,-281C73,-265.56 61.1,-262.82 58.5,-250.16"/>
<polygon fill="black" stroke="black" points="60.22,-249.81 58,-245 56.74,-250.15 60.22,-249.81"/>
</g>
<!-- n3 -->
<!-- vectorfield -->
<g id="n3" class="node">
<title>n3</title>
<polygon fill="none" stroke="black" points="36,-158.5 36,-183.5 104,-183.5 104,-158.5 36,-158.5"/>
<text text-anchor="start" x="41" y="-167.3" font-family="Serif" font-size="14.00">vectorfield</text>
</g>
<!-- n2&#45;&gt;n3 -->
<!-- LPN -->
<g id="e6" class="edge">
<title>n2:s&#45;&gt;n3:n</title>
<path fill="none" stroke="black" d="M58,-220C58,-204.98 67.52,-201.54 69.6,-189.05"/>
<polygon fill="black" stroke="black" points="71.35,-189.12 70,-184 67.86,-188.85 71.35,-189.12"/>
</g>
<!-- n3&#45;&gt;n5 -->
<!-- TVRXN -->
<g id="e10" class="edge">
<title>n3:s&#45;&gt;n5:n</title>
<path fill="none" stroke="black" d="M70,-159C70,-130.91 120.1,-150.18 126.36,-128.01"/>
<polygon fill="black" stroke="black" points="128.1,-128.18 127,-123 124.63,-127.74 128.1,-128.18"/>
</g>
<!-- n4&#45;&gt;n5 -->
<!-- RateFuncVect -->
<g id="e9" class="edge">
<title>n4:s&#45;&gt;n5:n</title>
<path fill="none" stroke="black" d="M277,-281C277,-204.52 202.61,-201.42 199.13,-128.38"/>
<polygon fill="black" stroke="black" points="200.87,-127.96 199,-123 197.37,-128.04 200.87,-127.96"/>
</g>
<!-- n6 -->
<!-- solveODE -->
<g id="n6" class="node">
<title>n6</title>
<polygon fill="none" stroke="black" points="129,-36.5 129,-61.5 196,-61.5 196,-36.5 129,-36.5"/>
<text text-anchor="start" x="134" y="-45.3" font-family="Serif" font-size="14.00">solveODE</text>
</g>
<!-- n5&#45;&gt;n6 -->
<!-- TVODEProb -->
<g id="e7" class="edge">
<title>n5:s&#45;&gt;n6:n</title>
<path fill="none" stroke="black" d="M163,-98C163,-83.88 163,-79.1 163,-67.17"/>
<polygon fill="black" stroke="black" points="164.75,-67 163,-62 161.25,-67 164.75,-67"/>
</g>
<!-- n6&#45;&gt;n0out1 -->
<!-- TVODESol -->
<g id="e11" class="edge">
<title>n6:s&#45;&gt;n0out1:n</title>
<path fill="none" stroke="black" d="M163,-37C163,-22.88 163,-18.1 163,-6.17"/>
<polygon fill="black" stroke="black" points="164.75,-6 163,-1 161.25,-6 164.75,-6"/>
</g>
</g>
</svg>
