<?xml version="1.0" encoding="UTF-8" standalone="no"?>
<!DOCTYPE svg PUBLIC "-//W3C//DTD SVG 1.1//EN"
 "http://www.w3.org/Graphics/SVG/1.1/DTD/svg11.dtd">
<!-- Generated by graphviz version 6.0.1 (20220911.1526)
 -->
<!-- Title: G Pages: 1 -->
<svg width="1019pt" height="595pt"
 viewBox="0.00 0.00 1019.00 595.00" xmlns="http://www.w3.org/2000/svg" xmlns:xlink="http://www.w3.org/1999/xlink">
<g id="graph0" class="graph" transform="scale(1 1) rotate(0) translate(4 591)">
<title>G</title>
<polygon fill="white" stroke="none" points="-4,4 -4,-591 1015,-591 1015,4 -4,4"/>
<!-- n0in1 -->
<!-- n0in2 -->
<!-- n0in1&#45;&gt;n0in2 -->
<!-- n1 -->
<!-- load_bln -->
<g id="n1" class="node">
<title>n1</title>
<polygon fill="none" stroke="black" points="57,-524.5 57,-549.5 115,-549.5 115,-524.5 57,-524.5"/>
<text text-anchor="start" x="62" y="-533.3" font-family="Serif" font-size="14.00">load_bln</text>
</g>
<!-- n0in1&#45;&gt;n1 -->
<!-- File -->
<g id="e1" class="edge">
<title>n0in1:s&#45;&gt;n1:n</title>
<path fill="none" stroke="black" d="M86,-586C86,-571.88 86,-567.1 86,-555.17"/>
<polygon fill="black" stroke="black" points="87.75,-555 86,-550 84.25,-555 87.75,-555"/>
</g>
<!-- n0in3 -->
<!-- n0in2&#45;&gt;n0in3 -->
<!-- n19 -->
<!-- ODEProblem -->
<g id="n19" class="node">
<title>n19</title>
<polygon fill="none" stroke="black" points="640,-97.5 640,-122.5 736,-122.5 736,-97.5 640,-97.5"/>
<text text-anchor="start" x="650.5" y="-106.3" font-family="Serif" font-size="14.00">ODEProblem</text>
</g>
<!-- n0in2&#45;&gt;n19 -->
<!-- StateVect -->
<g id="e4" class="edge">
<title>n0in2:s&#45;&gt;n19:n</title>
<path fill="none" stroke="black" d="M128,-586C128,-547.01 77.71,-575.25 48,-550 18.55,-524.97 0,-516.14 0,-477.5 0,-477.5 0,-477.5 0,-231.5 0,-194.88 626.76,-163.45 673.28,-127.21"/>
<polygon fill="black" stroke="black" points="674.75,-128.15 676,-123 671.82,-126.25 674.75,-128.15"/>
</g>
<!-- n0in4 -->
<!-- n0in3&#45;&gt;n0in4 -->
<!-- n18 -->
<!-- form_tv_params_s4q4 -->
<g id="n18" class="node">
<title>n18</title>
<polygon fill="none" stroke="black" points="735,-280.5 735,-305.5 869,-305.5 869,-280.5 735,-280.5"/>
<text text-anchor="start" x="740" y="-289.3" font-family="Serif" font-size="14.00">form_tv_params_s4q4</text>
</g>
<!-- n0in3&#45;&gt;n18 -->
<!-- RateVect -->
<g id="e2" class="edge">
<title>n0in3:s&#45;&gt;n18:n</title>
<path fill="none" stroke="black" d="M172,-586C172,-503.79 143.52,-463.67 199,-403 277.35,-317.33 338.67,-362.18 453,-342 486.07,-336.16 742.26,-340.75 766.21,-310.69"/>
<polygon fill="black" stroke="black" points="767.85,-311.3 768,-306 764.58,-310.05 767.85,-311.3"/>
</g>
<!-- n0in5 -->
<!-- n0in4&#45;&gt;n0in5 -->
<!-- n0in4&#45;&gt;n19 -->
<!-- TSpan -->
<g id="e5" class="edge">
<title>n0in4:s&#45;&gt;n19:n</title>
<path fill="none" stroke="black" d="M627,-586C627,-460.38 366,-603.12 366,-477.5 366,-477.5 366,-477.5 366,-231.5 366,-213.13 662.01,-150.48 696.69,-126.92"/>
<polygon fill="black" stroke="black" points="698.12,-127.95 700,-123 695.44,-125.7 698.12,-127.95"/>
</g>
<!-- n20 -->
<!-- run_control_optim_s4q4 -->
<g id="n20" class="node">
<title>n20</title>
<polygon fill="none" stroke="black" points="800,-36.5 800,-61.5 945,-61.5 945,-36.5 800,-36.5"/>
<text text-anchor="start" x="805" y="-45.3" font-family="Serif" font-size="14.00">run_control_optim_s4q4</text>
</g>
<!-- n0in4&#45;&gt;n20 -->
<!-- TSpan -->
<g id="e6" class="edge">
<title>n0in4:s&#45;&gt;n20:n</title>
<path fill="none" stroke="black" d="M627,-586C627,-456.67 897,-606.83 897,-477.5 897,-477.5 897,-477.5 897,-170.5 897,-123.78 885.87,-111.42 885.05,-67.25"/>
<polygon fill="black" stroke="black" points="886.8,-66.98 885,-62 883.3,-67.02 886.8,-66.98"/>
</g>
<!-- n0in6 -->
<!-- n0in5&#45;&gt;n0in6 -->
<!-- n0in5&#45;&gt;n20 -->
<!-- CntrlArgVect -->
<g id="e7" class="edge">
<title>n0in5:s&#45;&gt;n20:n</title>
<path fill="none" stroke="black" d="M933,-586C933,-508.6 973,-493.9 973,-416.5 973,-416.5 973,-416.5 973,-170.5 973,-116.26 912.94,-117.83 909.18,-67.08"/>
<polygon fill="black" stroke="black" points="910.93,-66.93 909,-62 907.43,-67.06 910.93,-66.93"/>
</g>
<!-- n0in6&#45;&gt;n18 -->
<!-- CntrlParamVect -->
<g id="e3" class="edge">
<title>n0in6:s&#45;&gt;n18:n</title>
<path fill="none" stroke="black" d="M975,-586C975,-448.83 839.51,-445.01 836.07,-311.23"/>
<polygon fill="black" stroke="black" points="837.81,-310.98 836,-306 834.31,-311.02 837.81,-310.98"/>
</g>
<!-- n0in6&#45;&gt;n20 -->
<!-- CntrlParamVect -->
<g id="e8" class="edge">
<title>n0in6:s&#45;&gt;n20:n</title>
<path fill="none" stroke="black" d="M975,-586C975,-535.19 1011,-528.31 1011,-477.5 1011,-477.5 1011,-477.5 1011,-170.5 1011,-142.43 941.3,-97.01 933.67,-67.04"/>
<polygon fill="black" stroke="black" points="935.4,-66.72 933,-62 931.93,-67.19 935.4,-66.72"/>
</g>
<!-- n0out1 -->
<!-- n0out2 -->
<!-- n0out1&#45;&gt;n0out2 -->
<!-- n0out3 -->
<!-- n0out2&#45;&gt;n0out3 -->
<!-- n2 -->
<!-- convert_bln_to_lpn -->
<g id="n2" class="node">
<title>n2</title>
<polygon fill="none" stroke="black" points="28,-463.5 28,-488.5 144,-488.5 144,-463.5 28,-463.5"/>
<text text-anchor="start" x="33" y="-472.3" font-family="Serif" font-size="14.00">convert_bln_to_lpn</text>
</g>
<!-- n1&#45;&gt;n2 -->
<!-- BLN -->
<g id="e15" class="edge">
<title>n1:s&#45;&gt;n2:n</title>
<path fill="none" stroke="black" d="M86,-525C86,-510.88 86,-506.1 86,-494.17"/>
<polygon fill="black" stroke="black" points="87.75,-494 86,-489 84.25,-494 87.75,-494"/>
</g>
<!-- n5 -->
<!-- augment_lpn -->
<g id="n5" class="node">
<title>n5</title>
<polygon fill="none" stroke="black" points="208,-402.5 208,-427.5 290,-427.5 290,-402.5 208,-402.5"/>
<text text-anchor="start" x="213" y="-411.3" font-family="Serif" font-size="14.00">augment_lpn</text>
</g>
<!-- n2&#45;&gt;n5 -->
<!-- LPN -->
<g id="e28" class="edge">
<title>n2:s&#45;&gt;n5:n</title>
<path fill="none" stroke="black" d="M86,-464C86,-400.8 219.8,-487.72 227.64,-433.32"/>
<polygon fill="black" stroke="black" points="229.41,-433.11 228,-428 225.92,-432.87 229.41,-433.11"/>
</g>
<!-- n3 -->
<!-- form_type_inf -->
<g id="n3" class="node">
<title>n3</title>
<polygon fill="none" stroke="black" points="567,-402.5 567,-427.5 656,-427.5 656,-402.5 567,-402.5"/>
<text text-anchor="start" x="572" y="-411.3" font-family="Serif" font-size="14.00">form_type_inf</text>
</g>
<!-- n6 -->
<!-- type_s4m1 -->
<g id="n6" class="node">
<title>n6</title>
<polygon fill="none" stroke="black" points="463,-341.5 463,-366.5 534,-366.5 534,-341.5 463,-341.5"/>
<text text-anchor="start" x="468" y="-350.3" font-family="Serif" font-size="14.00">type_s4m1</text>
</g>
<!-- n3&#45;&gt;n6 -->
<!-- LPNType -->
<g id="e30" class="edge">
<title>n3:s&#45;&gt;n6:n</title>
<path fill="none" stroke="black" d="M612,-403C612,-359.79 524.99,-407.67 517.51,-372.29"/>
<polygon fill="black" stroke="black" points="519.22,-371.81 517,-367 515.74,-372.15 519.22,-371.81"/>
</g>
<!-- n10 -->
<!-- type_test -->
<g id="n10" class="node">
<title>n10</title>
<polygon fill="none" stroke="black" points="651,-341.5 651,-366.5 710,-366.5 710,-341.5 651,-341.5"/>
<text text-anchor="start" x="656" y="-350.3" font-family="Serif" font-size="14.00">type_test</text>
</g>
<!-- n3&#45;&gt;n10 -->
<!-- LPNType -->
<g id="e14" class="edge">
<title>n3:s&#45;&gt;n10:n</title>
<path fill="none" stroke="black" d="M612,-403C612,-364.29 688.31,-403.57 695.46,-372.16"/>
<polygon fill="black" stroke="black" points="697.22,-372.15 696,-367 693.74,-371.79 697.22,-372.15"/>
</g>
<!-- n14 -->
<!-- type_cohorts -->
<g id="n14" class="node">
<title>n14</title>
<polygon fill="none" stroke="black" points="552,-341.5 552,-366.5 632,-366.5 632,-341.5 552,-341.5"/>
<text text-anchor="start" x="557" y="-350.3" font-family="Serif" font-size="14.00">type_cohorts</text>
</g>
<!-- n3&#45;&gt;n14 -->
<!-- LPNType -->
<g id="e26" class="edge">
<title>n3:s&#45;&gt;n14:n</title>
<path fill="none" stroke="black" d="M612,-403C612,-388.88 612,-384.1 612,-372.17"/>
<polygon fill="black" stroke="black" points="613.75,-372 612,-367 610.25,-372 613.75,-372"/>
</g>
<!-- n4 -->
<!-- form_aug_states_s4m1 -->
<g id="n4" class="node">
<title>n4</title>
<polygon fill="none" stroke="black" points="201,-463.5 201,-488.5 338,-488.5 338,-463.5 201,-463.5"/>
<text text-anchor="start" x="206" y="-472.3" font-family="Serif" font-size="14.00">form_aug_states_s4m1</text>
</g>
<!-- n4&#45;&gt;n5 -->
<!-- AugStates -->
<g id="e13" class="edge">
<title>n4:s&#45;&gt;n5:n</title>
<path fill="none" stroke="black" d="M270,-464C270,-449.88 270,-445.1 270,-433.17"/>
<polygon fill="black" stroke="black" points="271.75,-433 270,-428 268.25,-433 271.75,-433"/>
</g>
<!-- n5&#45;&gt;n6 -->
<!-- LPNAug -->
<g id="e23" class="edge">
<title>n5:s&#45;&gt;n6:n</title>
<path fill="none" stroke="black" d="M249,-403C249,-300.49 472.92,-465.36 480.79,-372.25"/>
<polygon fill="black" stroke="black" points="482.55,-372.07 481,-367 479.05,-371.93 482.55,-372.07"/>
</g>
<!-- n15 -->
<!-- stratify_typed_lpn -->
<g id="n15" class="node">
<title>n15</title>
<polygon fill="none" stroke="black" points="509,-280.5 509,-305.5 619,-305.5 619,-280.5 509,-280.5"/>
<text text-anchor="start" x="514" y="-289.3" font-family="Serif" font-size="14.00">stratify_typed_lpn</text>
</g>
<!-- n6&#45;&gt;n15 -->
<!-- LPNTyped -->
<g id="e29" class="edge">
<title>n6:s&#45;&gt;n15:n</title>
<path fill="none" stroke="black" d="M499,-342C499,-321.03 529.91,-327.49 535.23,-311.23"/>
<polygon fill="black" stroke="black" points="537,-311.2 536,-306 533.54,-310.69 537,-311.2"/>
</g>
<!-- n7 -->
<!-- form_test -->
<g id="n7" class="node">
<title>n7</title>
<polygon fill="none" stroke="black" points="662,-463.5 662,-488.5 725,-488.5 725,-463.5 662,-463.5"/>
<text text-anchor="start" x="667" y="-472.3" font-family="Serif" font-size="14.00">form_test</text>
</g>
<!-- n9 -->
<!-- augment_lpn -->
<g id="n9" class="node">
<title>n9</title>
<polygon fill="none" stroke="black" points="674,-402.5 674,-427.5 756,-427.5 756,-402.5 674,-402.5"/>
<text text-anchor="start" x="679" y="-411.3" font-family="Serif" font-size="14.00">augment_lpn</text>
</g>
<!-- n7&#45;&gt;n9 -->
<!-- LPN -->
<g id="e20" class="edge">
<title>n7:s&#45;&gt;n9:n</title>
<path fill="none" stroke="black" d="M694,-464C694,-449.88 694,-445.1 694,-433.17"/>
<polygon fill="black" stroke="black" points="695.75,-433 694,-428 692.25,-433 695.75,-433"/>
</g>
<!-- n8 -->
<!-- form_aug_states_test -->
<g id="n8" class="node">
<title>n8</title>
<polygon fill="none" stroke="black" points="743,-463.5 743,-488.5 869,-488.5 869,-463.5 743,-463.5"/>
<text text-anchor="start" x="748" y="-472.3" font-family="Serif" font-size="14.00">form_aug_states_test</text>
</g>
<!-- n8&#45;&gt;n9 -->
<!-- AugStates -->
<g id="e9" class="edge">
<title>n8:s&#45;&gt;n9:n</title>
<path fill="none" stroke="black" d="M806,-464C806,-430.93 743.45,-459.48 736.61,-433.14"/>
<polygon fill="black" stroke="black" points="738.32,-432.76 736,-428 734.85,-433.17 738.32,-432.76"/>
</g>
<!-- n9&#45;&gt;n10 -->
<!-- LPNAug -->
<g id="e12" class="edge">
<title>n9:s&#45;&gt;n10:n</title>
<path fill="none" stroke="black" d="M715,-403C715,-377.88 672.65,-391.71 666.69,-372.06"/>
<polygon fill="black" stroke="black" points="668.41,-371.72 666,-367 664.94,-372.19 668.41,-371.72"/>
</g>
<!-- n16 -->
<!-- stratify_typed_lpn -->
<g id="n16" class="node">
<title>n16</title>
<polygon fill="none" stroke="black" points="597,-219.5 597,-244.5 707,-244.5 707,-219.5 597,-219.5"/>
<text text-anchor="start" x="602" y="-228.3" font-family="Serif" font-size="14.00">stratify_typed_lpn</text>
</g>
<!-- n10&#45;&gt;n16 -->
<!-- LPNTyped -->
<g id="e22" class="edge">
<title>n10:s&#45;&gt;n16:n</title>
<path fill="none" stroke="black" d="M681,-342C681,-300.74 680.08,-289.1 680.01,-250.38"/>
<polygon fill="black" stroke="black" points="681.76,-250 680,-245 678.26,-250 681.76,-250"/>
</g>
<!-- n11 -->
<!-- form_cohorts -->
<g id="n11" class="node">
<title>n11</title>
<polygon fill="none" stroke="black" points="394,-463.5 394,-488.5 478,-488.5 478,-463.5 394,-463.5"/>
<text text-anchor="start" x="399" y="-472.3" font-family="Serif" font-size="14.00">form_cohorts</text>
</g>
<!-- n13 -->
<!-- augment_lpn -->
<g id="n13" class="node">
<title>n13</title>
<polygon fill="none" stroke="black" points="466,-402.5 466,-427.5 548,-427.5 548,-402.5 466,-402.5"/>
<text text-anchor="start" x="471" y="-411.3" font-family="Serif" font-size="14.00">augment_lpn</text>
</g>
<!-- n11&#45;&gt;n13 -->
<!-- LPN -->
<g id="e19" class="edge">
<title>n11:s&#45;&gt;n13:n</title>
<path fill="none" stroke="black" d="M436,-464C436,-438.54 479.22,-452.97 485.29,-433.12"/>
<polygon fill="black" stroke="black" points="487.05,-433.19 486,-428 483.58,-432.71 487.05,-433.19"/>
</g>
<!-- n12 -->
<!-- form_aug_states_cohorts -->
<g id="n12" class="node">
<title>n12</title>
<polygon fill="none" stroke="black" points="497,-463.5 497,-488.5 644,-488.5 644,-463.5 497,-463.5"/>
<text text-anchor="start" x="502" y="-472.3" font-family="Serif" font-size="14.00">form_aug_states_cohorts</text>
</g>
<!-- n12&#45;&gt;n13 -->
<!-- AugStates -->
<g id="e21" class="edge">
<title>n12:s&#45;&gt;n13:n</title>
<path fill="none" stroke="black" d="M571,-464C571,-441.02 534.46,-451 528.75,-433.17"/>
<polygon fill="black" stroke="black" points="530.45,-432.7 528,-428 526.98,-433.2 530.45,-432.7"/>
</g>
<!-- n13&#45;&gt;n14 -->
<!-- LPNAug -->
<g id="e24" class="edge">
<title>n13:s&#45;&gt;n14:n</title>
<path fill="none" stroke="black" d="M507,-403C507,-371.91 564.61,-396.72 571.36,-372.18"/>
<polygon fill="black" stroke="black" points="573.12,-372.18 572,-367 569.65,-371.75 573.12,-372.18"/>
</g>
<!-- n14&#45;&gt;n15 -->
<!-- LPNTyped -->
<g id="e31" class="edge">
<title>n14:s&#45;&gt;n15:n</title>
<path fill="none" stroke="black" d="M592,-342C592,-327.88 592,-323.1 592,-311.17"/>
<polygon fill="black" stroke="black" points="593.75,-311 592,-306 590.25,-311 593.75,-311"/>
</g>
<!-- n15&#45;&gt;n16 -->
<!-- LPNTyped -->
<g id="e18" class="edge">
<title>n15:s&#45;&gt;n16:n</title>
<path fill="none" stroke="black" d="M564,-281C564,-251.85 616.73,-273.05 623.33,-250.19"/>
<polygon fill="black" stroke="black" points="625.09,-250.18 624,-245 621.62,-249.73 625.09,-250.18"/>
</g>
<!-- n17 -->
<!-- vectorfield -->
<g id="n17" class="node">
<title>n17</title>
<polygon fill="none" stroke="black" points="618,-158.5 618,-183.5 686,-183.5 686,-158.5 618,-158.5"/>
<text text-anchor="start" x="623" y="-167.3" font-family="Serif" font-size="14.00">vectorfield</text>
</g>
<!-- n16&#45;&gt;n17 -->
<!-- LPNTyped -->
<g id="e25" class="edge">
<title>n16:s&#45;&gt;n17:n</title>
<path fill="none" stroke="black" d="M652,-220C652,-205.88 652,-201.1 652,-189.17"/>
<polygon fill="black" stroke="black" points="653.75,-189 652,-184 650.25,-189 653.75,-189"/>
</g>
<!-- n16&#45;&gt;n20 -->
<!-- LPNTyped -->
<g id="e16" class="edge">
<title>n16:s&#45;&gt;n20:n</title>
<path fill="none" stroke="black" d="M652,-220C652,-195.08 676.79,-201.02 695,-184 748.6,-133.9 809.09,-136.95 811.9,-67.15"/>
<polygon fill="black" stroke="black" points="813.65,-67.03 812,-62 810.15,-66.96 813.65,-67.03"/>
</g>
<!-- n17&#45;&gt;n19 -->
<!-- TVRXN -->
<g id="e17" class="edge">
<title>n17:s&#45;&gt;n19:n</title>
<path fill="none" stroke="black" d="M652,-159C652,-144.88 652,-140.1 652,-128.17"/>
<polygon fill="black" stroke="black" points="653.75,-128 652,-123 650.25,-128 653.75,-128"/>
</g>
<!-- n18&#45;&gt;n19 -->
<!-- RateFuncVect -->
<g id="e27" class="edge">
<title>n18:s&#45;&gt;n19:n</title>
<path fill="none" stroke="black" d="M802,-281C802,-204.52 727.61,-201.42 724.13,-128.38"/>
<polygon fill="black" stroke="black" points="725.87,-127.96 724,-123 722.37,-128.04 725.87,-127.96"/>
</g>
<!-- n18&#45;&gt;n20 -->
<!-- RateFuncVect -->
<g id="e11" class="edge">
<title>n18:s&#45;&gt;n20:n</title>
<path fill="none" stroke="black" d="M802,-281C802,-181.97 858.94,-163.44 860.95,-67.24"/>
<polygon fill="black" stroke="black" points="862.7,-67.02 861,-62 859.2,-66.98 862.7,-67.02"/>
</g>
<!-- n19&#45;&gt;n20 -->
<!-- TVODEProb -->
<g id="e10" class="edge">
<title>n19:s&#45;&gt;n20:n</title>
<path fill="none" stroke="black" d="M688,-98C688,-31.74 828.96,-124.77 836.67,-67.22"/>
<polygon fill="black" stroke="black" points="838.43,-67.1 837,-62 834.94,-66.88 838.43,-67.1"/>
</g>
<!-- n20&#45;&gt;n0out1 -->
<!-- CntrlParamVect -->
<g id="e32" class="edge">
<title>n20:s&#45;&gt;n0out1:n</title>
<path fill="none" stroke="black" d="M818,-37C818,-22.74 814.1,-18.19 813.19,-6.21"/>
<polygon fill="black" stroke="black" points="814.93,-5.93 813,-1 811.43,-6.06 814.93,-5.93"/>
</g>
<!-- n20&#45;&gt;n0out2 -->
<!-- TVODESol -->
<g id="e33" class="edge">
<title>n20:s&#45;&gt;n0out2:n</title>
<path fill="none" stroke="black" d="M855,-37C855,-22.88 855,-18.1 855,-6.17"/>
<polygon fill="black" stroke="black" points="856.75,-6 855,-1 853.25,-6 856.75,-6"/>
</g>
<!-- n20&#45;&gt;n0out3 -->
<!-- TimeVect -->
<g id="e34" class="edge">
<title>n20:s&#45;&gt;n0out3:n</title>
<path fill="none" stroke="black" d="M891,-37C891,-22.68 895.68,-18.23 896.77,-6.22"/>
<polygon fill="black" stroke="black" points="898.53,-6.07 897,-1 895.03,-5.92 898.53,-6.07"/>
</g>
</g>
</svg>
