<?xml version="1.0" encoding="UTF-8" standalone="no"?>
<!DOCTYPE svg PUBLIC "-//W3C//DTD SVG 1.1//EN"
 "http://www.w3.org/Graphics/SVG/1.1/DTD/svg11.dtd">
<!-- Generated by graphviz version 6.0.1 (20220911.1526)
 -->
<!-- Title: G Pages: 1 -->
<svg width="412pt" height="351pt"
 viewBox="0.00 0.00 411.50 351.00" xmlns="http://www.w3.org/2000/svg" xmlns:xlink="http://www.w3.org/1999/xlink">
<g id="graph0" class="graph" transform="scale(1 1) rotate(0) translate(4 347)">
<title>G</title>
<polygon fill="white" stroke="none" points="-4,4 -4,-347 407.5,-347 407.5,4 -4,4"/>
<!-- n0in1 -->
<!-- n0in2 -->
<!-- n0in1&#45;&gt;n0in2 -->
<!-- n1 -->
<!-- load_tpn -->
<g id="n1" class="node">
<title>n1</title>
<polygon fill="none" stroke="black" points="0,-280.5 0,-305.5 58,-305.5 58,-280.5 0,-280.5"/>
<text text-anchor="start" x="5" y="-289.3" font-family="Serif" font-size="14.00">load_tpn</text>
</g>
<!-- n0in1&#45;&gt;n1 -->
<!-- File -->
<g id="e1" class="edge">
<title>n0in1:s&#45;&gt;n1:n</title>
<path fill="none" stroke="black" d="M46,-342C46,-326.24 32.52,-324.03 29.57,-311.24"/>
<polygon fill="black" stroke="black" points="31.28,-310.78 29,-306 27.8,-311.16 31.28,-310.78"/>
</g>
<!-- n0in3 -->
<!-- n0in2&#45;&gt;n0in3 -->
<!-- n2 -->
<!-- load_tpn -->
<g id="n2" class="node">
<title>n2</title>
<polygon fill="none" stroke="black" points="76,-280.5 76,-305.5 134,-305.5 134,-280.5 76,-280.5"/>
<text text-anchor="start" x="81" y="-289.3" font-family="Serif" font-size="14.00">load_tpn</text>
</g>
<!-- n0in2&#45;&gt;n2 -->
<!-- File -->
<g id="e2" class="edge">
<title>n0in2:s&#45;&gt;n2:n</title>
<path fill="none" stroke="black" d="M105,-342C105,-327.88 105,-323.1 105,-311.17"/>
<polygon fill="black" stroke="black" points="106.75,-311 105,-306 103.25,-311 106.75,-311"/>
</g>
<!-- n0in4 -->
<!-- n0in3&#45;&gt;n0in4 -->
<!-- n6 -->
<!-- ODEProblem -->
<g id="n6" class="node">
<title>n6</title>
<polygon fill="none" stroke="black" points="152,-97.5 152,-122.5 248,-122.5 248,-97.5 152,-97.5"/>
<text text-anchor="start" x="162.5" y="-106.3" font-family="Serif" font-size="14.00">ODEProblem</text>
</g>
<!-- n0in3&#45;&gt;n6 -->
<!-- StateVect -->
<g id="e4" class="edge">
<title>n0in3:s&#45;&gt;n6:n</title>
<path fill="none" stroke="black" d="M156,-342C156,-245.36 186.88,-222.17 187.97,-128.12"/>
<polygon fill="black" stroke="black" points="189.72,-128.01 188,-123 186.22,-127.99 189.72,-128.01"/>
</g>
<!-- n0in5 -->
<!-- n0in4&#45;&gt;n0in5 -->
<!-- n5 -->
<!-- form_tv_params_const -->
<g id="n5" class="node">
<title>n5</title>
<polygon fill="none" stroke="black" points="267,-219.5 267,-244.5 404,-244.5 404,-219.5 267,-219.5"/>
<text text-anchor="start" x="272" y="-228.3" font-family="Serif" font-size="14.00">form_tv_params_const</text>
</g>
<!-- n0in4&#45;&gt;n5 -->
<!-- RateVect -->
<g id="e3" class="edge">
<title>n0in4:s&#45;&gt;n5:n</title>
<path fill="none" stroke="black" d="M198,-342C198,-268.79 329.61,-317.56 335.78,-250.06"/>
<polygon fill="black" stroke="black" points="337.53,-250.07 336,-245 334.03,-249.92 337.53,-250.07"/>
</g>
<!-- n0in5&#45;&gt;n6 -->
<!-- TSpan -->
<g id="e5" class="edge">
<title>n0in5:s&#45;&gt;n6:n</title>
<path fill="none" stroke="black" d="M240,-342C240,-245.6 212.98,-221.95 212.03,-128.11"/>
<polygon fill="black" stroke="black" points="213.78,-127.99 212,-123 210.28,-128.01 213.78,-127.99"/>
</g>
<!-- n0out1 -->
<!-- n3 -->
<!-- restratify_typed_lpn -->
<g id="n3" class="node">
<title>n3</title>
<polygon fill="none" stroke="black" points="14,-219.5 14,-244.5 134,-244.5 134,-219.5 14,-219.5"/>
<text text-anchor="start" x="19" y="-228.3" font-family="Serif" font-size="14.00">restratify_typed_lpn</text>
</g>
<!-- n1&#45;&gt;n3 -->
<!-- LPNTyped -->
<g id="e10" class="edge">
<title>n1:s&#45;&gt;n3:n</title>
<path fill="none" stroke="black" d="M29,-281C29,-265.56 40.9,-262.82 43.5,-250.16"/>
<polygon fill="black" stroke="black" points="45.26,-250.15 44,-245 41.78,-249.81 45.26,-250.15"/>
</g>
<!-- n2&#45;&gt;n3 -->
<!-- LPNTyped -->
<g id="e11" class="edge">
<title>n2:s&#45;&gt;n3:n</title>
<path fill="none" stroke="black" d="M105,-281C105,-266.87 104.22,-262.11 104.04,-250.17"/>
<polygon fill="black" stroke="black" points="105.79,-249.99 104,-245 102.29,-250.01 105.79,-249.99"/>
</g>
<!-- n4 -->
<!-- vectorfield -->
<g id="n4" class="node">
<title>n4</title>
<polygon fill="none" stroke="black" points="53,-158.5 53,-183.5 121,-183.5 121,-158.5 53,-158.5"/>
<text text-anchor="start" x="58" y="-167.3" font-family="Serif" font-size="14.00">vectorfield</text>
</g>
<!-- n3&#45;&gt;n4 -->
<!-- LPNTyped -->
<g id="e8" class="edge">
<title>n3:s&#45;&gt;n4:n</title>
<path fill="none" stroke="black" d="M74,-220C74,-204.85 84.31,-201.62 86.57,-189.08"/>
<polygon fill="black" stroke="black" points="88.32,-189.13 87,-184 84.83,-188.83 88.32,-189.13"/>
</g>
<!-- n4&#45;&gt;n6 -->
<!-- TVRXN -->
<g id="e7" class="edge">
<title>n4:s&#45;&gt;n6:n</title>
<path fill="none" stroke="black" d="M87,-159C87,-123.14 156.38,-156.96 163.42,-128.18"/>
<polygon fill="black" stroke="black" points="165.19,-128.16 164,-123 161.71,-127.78 165.19,-128.16"/>
</g>
<!-- n5&#45;&gt;n6 -->
<!-- RateFuncVect -->
<g id="e6" class="edge">
<title>n5:s&#45;&gt;n6:n</title>
<path fill="none" stroke="black" d="M336,-220C336,-159.9 241.77,-183.42 236.25,-128.22"/>
<polygon fill="black" stroke="black" points="237.99,-127.91 236,-123 234.49,-128.08 237.99,-127.91"/>
</g>
<!-- n7 -->
<!-- solveODE -->
<g id="n7" class="node">
<title>n7</title>
<polygon fill="none" stroke="black" points="166,-36.5 166,-61.5 233,-61.5 233,-36.5 166,-36.5"/>
<text text-anchor="start" x="171" y="-45.3" font-family="Serif" font-size="14.00">solveODE</text>
</g>
<!-- n6&#45;&gt;n7 -->
<!-- TVODEProb -->
<g id="e9" class="edge">
<title>n6:s&#45;&gt;n7:n</title>
<path fill="none" stroke="black" d="M200,-98C200,-83.88 200,-79.1 200,-67.17"/>
<polygon fill="black" stroke="black" points="201.75,-67 200,-62 198.25,-67 201.75,-67"/>
</g>
<!-- n7&#45;&gt;n0out1 -->
<!-- TVODESol -->
<g id="e12" class="edge">
<title>n7:s&#45;&gt;n0out1:n</title>
<path fill="none" stroke="black" d="M200,-37C200,-22.88 200,-18.1 200,-6.17"/>
<polygon fill="black" stroke="black" points="201.75,-6 200,-1 198.25,-6 201.75,-6"/>
</g>
</g>
</svg>
