<?xml version="1.0" encoding="UTF-8" standalone="no"?>
<!DOCTYPE svg PUBLIC "-//W3C//DTD SVG 1.1//EN"
 "http://www.w3.org/Graphics/SVG/1.1/DTD/svg11.dtd">
<!-- Generated by graphviz version 6.0.1 (20220911.1526)
 -->
<!-- Title: G Pages: 1 -->
<svg width="456pt" height="351pt"
 viewBox="0.00 0.00 456.00 351.00" xmlns="http://www.w3.org/2000/svg" xmlns:xlink="http://www.w3.org/1999/xlink">
<g id="graph0" class="graph" transform="scale(1 1) rotate(0) translate(4 347)">
<title>G</title>
<polygon fill="white" stroke="none" points="-4,4 -4,-347 452,-347 452,4 -4,4"/>
<!-- n0in1 -->
<!-- n0in2 -->
<!-- n0in1&#45;&gt;n0in2 -->
<!-- n1 -->
<!-- load_bln -->
<g id="n1" class="node">
<title>n1</title>
<polygon fill="none" stroke="black" points="44,-280.5 44,-305.5 102,-305.5 102,-280.5 44,-280.5"/>
<text text-anchor="start" x="49" y="-289.3" font-family="Serif" font-size="14.00">load_bln</text>
</g>
<!-- n0in1&#45;&gt;n1 -->
<!-- File -->
<g id="e1" class="edge">
<title>n0in1:s&#45;&gt;n1:n</title>
<path fill="none" stroke="black" d="M93,-342C93,-325.56 76.86,-324.38 73.58,-311.03"/>
<polygon fill="black" stroke="black" points="75.31,-310.77 73,-306 71.83,-311.17 75.31,-310.77"/>
</g>
<!-- n0in3 -->
<!-- n0in2&#45;&gt;n0in3 -->
<!-- n5 -->
<!-- ODEProblem -->
<g id="n5" class="node">
<title>n5</title>
<polygon fill="none" stroke="black" points="122,-97.5 122,-122.5 218,-122.5 218,-97.5 122,-97.5"/>
<text text-anchor="start" x="132.5" y="-106.3" font-family="Serif" font-size="14.00">ODEProblem</text>
</g>
<!-- n0in2&#45;&gt;n5 -->
<!-- StateVect -->
<g id="e4" class="edge">
<title>n0in2:s&#45;&gt;n5:n</title>
<path fill="none" stroke="black" d="M142,-342C142,-246.12 157.44,-221.45 157.99,-128.08"/>
<polygon fill="black" stroke="black" points="159.74,-128.01 158,-123 156.24,-127.99 159.74,-128.01"/>
</g>
<!-- n0in4 -->
<!-- n0in3&#45;&gt;n0in4 -->
<!-- n4 -->
<!-- form_tv_params_s2q5 -->
<g id="n4" class="node">
<title>n4</title>
<polygon fill="none" stroke="black" points="210,-219.5 210,-244.5 344,-244.5 344,-219.5 210,-219.5"/>
<text text-anchor="start" x="215" y="-228.3" font-family="Serif" font-size="14.00">form_tv_params_s2q5</text>
</g>
<!-- n0in3&#45;&gt;n4 -->
<!-- RateVect -->
<g id="e2" class="edge">
<title>n0in3:s&#45;&gt;n4:n</title>
<path fill="none" stroke="black" d="M184,-342C184,-293.31 238.92,-295.25 242.79,-250.13"/>
<polygon fill="black" stroke="black" points="244.54,-250.07 243,-245 241.04,-249.92 244.54,-250.07"/>
</g>
<!-- n0in5 -->
<!-- n0in4&#45;&gt;n0in5 -->
<!-- n0in4&#45;&gt;n5 -->
<!-- TSpan -->
<g id="e5" class="edge">
<title>n0in4:s&#45;&gt;n5:n</title>
<path fill="none" stroke="black" d="M285,-342C285,-284.97 224.99,-296.74 201,-245 178.64,-196.77 181.77,-178.99 181.99,-128.04"/>
<polygon fill="black" stroke="black" points="183.74,-128 182,-123 180.24,-128 183.74,-128"/>
</g>
<!-- n6 -->
<!-- run_control_optim_s2q5 -->
<g id="n6" class="node">
<title>n6</title>
<polygon fill="none" stroke="black" points="261,-36.5 261,-61.5 406,-61.5 406,-36.5 261,-36.5"/>
<text text-anchor="start" x="266" y="-45.3" font-family="Serif" font-size="14.00">run_control_optim_s2q5</text>
</g>
<!-- n0in4&#45;&gt;n6 -->
<!-- TSpan -->
<g id="e6" class="edge">
<title>n0in4:s&#45;&gt;n6:n</title>
<path fill="none" stroke="black" d="M285,-342C285,-280.19 372,-295.31 372,-233.5 372,-233.5 372,-233.5 372,-170.5 372,-122.66 347.8,-112.29 346.09,-67.08"/>
<polygon fill="black" stroke="black" points="347.84,-66.97 346,-62 344.34,-67.03 347.84,-66.97"/>
</g>
<!-- n0in6 -->
<!-- n0in5&#45;&gt;n0in6 -->
<!-- n0in5&#45;&gt;n6 -->
<!-- CntrlArgVect -->
<g id="e7" class="edge">
<title>n0in5:s&#45;&gt;n6:n</title>
<path fill="none" stroke="black" d="M338,-342C338,-315.33 370.43,-327.65 386,-306 405.82,-278.44 410,-267.44 410,-233.5 410,-233.5 410,-233.5 410,-170.5 410,-136.56 398.24,-129.66 386,-98 380.38,-83.46 372.08,-80.15 370.33,-67.23"/>
<polygon fill="black" stroke="black" points="372.06,-66.88 370,-62 368.57,-67.1 372.06,-66.88"/>
</g>
<!-- n0in6&#45;&gt;n4 -->
<!-- CntrlParamVect -->
<g id="e3" class="edge">
<title>n0in6:s&#45;&gt;n4:n</title>
<path fill="none" stroke="black" d="M380,-342C380,-290.85 315.51,-297.39 311.22,-250.07"/>
<polygon fill="black" stroke="black" points="312.97,-249.92 311,-245 309.47,-250.07 312.97,-249.92"/>
</g>
<!-- n0in6&#45;&gt;n6 -->
<!-- CntrlParamVect -->
<g id="e8" class="edge">
<title>n0in6:s&#45;&gt;n6:n</title>
<path fill="none" stroke="black" d="M380,-342C380,-322 396.05,-322.74 407,-306 427.26,-275.02 448,-270.52 448,-233.5 448,-233.5 448,-233.5 448,-170.5 448,-145.15 400.14,-95.24 394.53,-67.01"/>
<polygon fill="black" stroke="black" points="396.27,-66.79 394,-62 392.79,-67.16 396.27,-66.79"/>
</g>
<!-- n0out1 -->
<!-- n0out2 -->
<!-- n0out1&#45;&gt;n0out2 -->
<!-- n0out3 -->
<!-- n0out2&#45;&gt;n0out3 -->
<!-- n2 -->
<!-- convert_bln_to_lpn -->
<g id="n2" class="node">
<title>n2</title>
<polygon fill="none" stroke="black" points="0,-219.5 0,-244.5 116,-244.5 116,-219.5 0,-219.5"/>
<text text-anchor="start" x="5" y="-228.3" font-family="Serif" font-size="14.00">convert_bln_to_lpn</text>
</g>
<!-- n1&#45;&gt;n2 -->
<!-- BLN -->
<g id="e12" class="edge">
<title>n1:s&#45;&gt;n2:n</title>
<path fill="none" stroke="black" d="M73,-281C73,-265.56 61.1,-262.82 58.5,-250.16"/>
<polygon fill="black" stroke="black" points="60.22,-249.81 58,-245 56.74,-250.15 60.22,-249.81"/>
</g>
<!-- n3 -->
<!-- vectorfield -->
<g id="n3" class="node">
<title>n3</title>
<polygon fill="none" stroke="black" points="48,-158.5 48,-183.5 116,-183.5 116,-158.5 48,-158.5"/>
<text text-anchor="start" x="53" y="-167.3" font-family="Serif" font-size="14.00">vectorfield</text>
</g>
<!-- n2&#45;&gt;n3 -->
<!-- LPN -->
<g id="e14" class="edge">
<title>n2:s&#45;&gt;n3:n</title>
<path fill="none" stroke="black" d="M58,-220C58,-202.72 77.37,-202.95 81.31,-189.23"/>
<polygon fill="black" stroke="black" points="83.08,-189.19 82,-184 79.61,-188.73 83.08,-189.19"/>
</g>
<!-- n2&#45;&gt;n6 -->
<!-- LPN -->
<g id="e11" class="edge">
<title>n2:s&#45;&gt;n6:n</title>
<path fill="none" stroke="black" d="M58,-220C58,-201.91 43.35,-201.56 39,-184 36.33,-173.21 34.26,-169.05 39,-159 57.18,-120.45 74.72,-116.74 113,-98 176.8,-66.76 268.22,-131.45 272.82,-67.28"/>
<polygon fill="black" stroke="black" points="274.58,-67.06 273,-62 271.08,-66.94 274.58,-67.06"/>
</g>
<!-- n3&#45;&gt;n5 -->
<!-- TVRXN -->
<g id="e13" class="edge">
<title>n3:s&#45;&gt;n5:n</title>
<path fill="none" stroke="black" d="M82,-159C82,-132.76 127.32,-148.64 133.34,-127.99"/>
<polygon fill="black" stroke="black" points="135.08,-128.19 134,-123 131.61,-127.73 135.08,-128.19"/>
</g>
<!-- n4&#45;&gt;n5 -->
<!-- RateFuncVect -->
<g id="e15" class="edge">
<title>n4:s&#45;&gt;n5:n</title>
<path fill="none" stroke="black" d="M277,-220C277,-168.35 210.64,-175.84 206.23,-128.12"/>
<polygon fill="black" stroke="black" points="207.97,-127.92 206,-123 204.48,-128.07 207.97,-127.92"/>
</g>
<!-- n4&#45;&gt;n6 -->
<!-- RateFuncVect -->
<g id="e9" class="edge">
<title>n4:s&#45;&gt;n6:n</title>
<path fill="none" stroke="black" d="M277,-220C277,-148.7 319.92,-135.61 321.93,-67.03"/>
<polygon fill="black" stroke="black" points="323.68,-67.02 322,-62 320.18,-66.97 323.68,-67.02"/>
</g>
<!-- n5&#45;&gt;n6 -->
<!-- TVODEProb -->
<g id="e10" class="edge">
<title>n5:s&#45;&gt;n6:n</title>
<path fill="none" stroke="black" d="M170,-98C170,-40.75 290.12,-116.1 297.63,-67.13"/>
<polygon fill="black" stroke="black" points="299.39,-67.11 298,-62 295.9,-66.86 299.39,-67.11"/>
</g>
<!-- n6&#45;&gt;n0out1 -->
<!-- CntrlParamVect -->
<g id="e16" class="edge">
<title>n6:s&#45;&gt;n0out1:n</title>
<path fill="none" stroke="black" d="M279,-37C279,-22.74 275.1,-18.19 274.19,-6.21"/>
<polygon fill="black" stroke="black" points="275.93,-5.93 274,-1 272.43,-6.06 275.93,-5.93"/>
</g>
<!-- n6&#45;&gt;n0out2 -->
<!-- TVODESol -->
<g id="e17" class="edge">
<title>n6:s&#45;&gt;n0out2:n</title>
<path fill="none" stroke="black" d="M316,-37C316,-22.88 316,-18.1 316,-6.17"/>
<polygon fill="black" stroke="black" points="317.75,-6 316,-1 314.25,-6 317.75,-6"/>
</g>
<!-- n6&#45;&gt;n0out3 -->
<!-- TimeVect -->
<g id="e18" class="edge">
<title>n6:s&#45;&gt;n0out3:n</title>
<path fill="none" stroke="black" d="M352,-37C352,-22.68 356.68,-18.23 357.77,-6.22"/>
<polygon fill="black" stroke="black" points="359.53,-6.07 358,-1 356.03,-5.92 359.53,-6.07"/>
</g>
</g>
</svg>
