<?xml version="1.0" encoding="UTF-8" standalone="no"?>
<!DOCTYPE svg PUBLIC "-//W3C//DTD SVG 1.1//EN"
 "http://www.w3.org/Graphics/SVG/1.1/DTD/svg11.dtd">
<!-- Generated by graphviz version 6.0.1 (20220911.1526)
 -->
<!-- Title: G Pages: 1 -->
<svg width="1019pt" height="595pt"
 viewBox="0.00 0.00 1019.00 595.00" xmlns="http://www.w3.org/2000/svg" xmlns:xlink="http://www.w3.org/1999/xlink">
<g id="graph0" class="graph" transform="scale(1 1) rotate(0) translate(4 591)">
<title>G</title>
<polygon fill="white" stroke="none" points="-4,4 -4,-591 1015,-591 1015,4 -4,4"/>
<!-- n0in1 -->
<!-- n0in2 -->
<!-- n0in1&#45;&gt;n0in2 -->
<!-- n1 -->
<!-- load_bln -->
<g id="n1" class="node">
<title>n1</title>
<polygon fill="none" stroke="black" points="57,-524.5 57,-549.5 115,-549.5 115,-524.5 57,-524.5"/>
<text text-anchor="start" x="62" y="-533.3" font-family="Serif" font-size="14.00">load_bln</text>
</g>
<!-- n0in1&#45;&gt;n1 -->
<!-- File -->
<g id="e1" class="edge">
<title>n0in1:s&#45;&gt;n1:n</title>
<path fill="none" stroke="black" d="M86,-586C86,-571.88 86,-567.1 86,-555.17"/>
<polygon fill="black" stroke="black" points="87.75,-555 86,-550 84.25,-555 87.75,-555"/>
</g>
<!-- n0in3 -->
<!-- n0in2&#45;&gt;n0in3 -->
<!-- n19 -->
<!-- ODEProblem -->
<g id="n19" class="node">
<title>n19</title>
<polygon fill="none" stroke="black" points="637,-97.5 637,-122.5 733,-122.5 733,-97.5 637,-97.5"/>
<text text-anchor="start" x="647.5" y="-106.3" font-family="Serif" font-size="14.00">ODEProblem</text>
</g>
<!-- n0in2&#45;&gt;n19 -->
<!-- StateVect -->
<g id="e4" class="edge">
<title>n0in2:s&#45;&gt;n19:n</title>
<path fill="none" stroke="black" d="M128,-586C128,-547.01 77.71,-575.25 48,-550 18.55,-524.97 0,-516.14 0,-477.5 0,-477.5 0,-477.5 0,-231.5 0,-195.11 621.45,-163.44 670,-127.42"/>
<polygon fill="black" stroke="black" points="671.64,-128.12 673,-123 668.74,-126.15 671.64,-128.12"/>
</g>
<!-- n0in4 -->
<!-- n0in3&#45;&gt;n0in4 -->
<!-- n18 -->
<!-- form_tv_params_s4q3a -->
<g id="n18" class="node">
<title>n18</title>
<polygon fill="none" stroke="black" points="729,-280.5 729,-305.5 869,-305.5 869,-280.5 729,-280.5"/>
<text text-anchor="start" x="734" y="-289.3" font-family="Serif" font-size="14.00">form_tv_params_s4q3a</text>
</g>
<!-- n0in3&#45;&gt;n18 -->
<!-- RateVect -->
<g id="e2" class="edge">
<title>n0in3:s&#45;&gt;n18:n</title>
<path fill="none" stroke="black" d="M172,-586C172,-503.79 143.6,-463.74 199,-403 276.36,-318.18 336.98,-362.13 450,-342 482.95,-336.13 738.34,-340.65 762.21,-310.68"/>
<polygon fill="black" stroke="black" points="763.85,-311.3 764,-306 760.58,-310.05 763.85,-311.3"/>
</g>
<!-- n0in5 -->
<!-- n0in4&#45;&gt;n0in5 -->
<!-- n0in4&#45;&gt;n19 -->
<!-- TSpan -->
<g id="e5" class="edge">
<title>n0in4:s&#45;&gt;n19:n</title>
<path fill="none" stroke="black" d="M627,-586C627,-460.38 366,-603.12 366,-477.5 366,-477.5 366,-477.5 366,-231.5 366,-213.28 659.35,-150.36 693.72,-126.9"/>
<polygon fill="black" stroke="black" points="695.12,-127.95 697,-123 692.44,-125.7 695.12,-127.95"/>
</g>
<!-- n20 -->
<!-- run_control_optim_s4q3a -->
<g id="n20" class="node">
<title>n20</title>
<polygon fill="none" stroke="black" points="796,-36.5 796,-61.5 947,-61.5 947,-36.5 796,-36.5"/>
<text text-anchor="start" x="801" y="-45.3" font-family="Serif" font-size="14.00">run_control_optim_s4q3a</text>
</g>
<!-- n0in4&#45;&gt;n20 -->
<!-- TSpan -->
<g id="e6" class="edge">
<title>n0in4:s&#45;&gt;n20:n</title>
<path fill="none" stroke="black" d="M627,-586C627,-456.67 897,-606.83 897,-477.5 897,-477.5 897,-477.5 897,-170.5 897,-123.78 885.87,-111.42 885.05,-67.25"/>
<polygon fill="black" stroke="black" points="886.8,-66.98 885,-62 883.3,-67.02 886.8,-66.98"/>
</g>
<!-- n0in6 -->
<!-- n0in5&#45;&gt;n0in6 -->
<!-- n0in5&#45;&gt;n20 -->
<!-- CntrlArgVect -->
<g id="e7" class="edge">
<title>n0in5:s&#45;&gt;n20:n</title>
<path fill="none" stroke="black" d="M933,-586C933,-508.6 973,-493.9 973,-416.5 973,-416.5 973,-416.5 973,-170.5 973,-116.48 913.88,-117.63 910.18,-67.06"/>
<polygon fill="black" stroke="black" points="911.93,-66.93 910,-62 908.43,-67.06 911.93,-66.93"/>
</g>
<!-- n0in6&#45;&gt;n18 -->
<!-- CntrlParamVect -->
<g id="e3" class="edge">
<title>n0in6:s&#45;&gt;n18:n</title>
<path fill="none" stroke="black" d="M975,-586C975,-448.44 837.56,-445.39 834.07,-311.24"/>
<polygon fill="black" stroke="black" points="835.81,-310.98 834,-306 832.31,-311.02 835.81,-310.98"/>
</g>
<!-- n0in6&#45;&gt;n20 -->
<!-- CntrlParamVect -->
<g id="e8" class="edge">
<title>n0in6:s&#45;&gt;n20:n</title>
<path fill="none" stroke="black" d="M975,-586C975,-535.19 1011,-528.31 1011,-477.5 1011,-477.5 1011,-477.5 1011,-170.5 1011,-142.67 943.09,-96.81 935.66,-67"/>
<polygon fill="black" stroke="black" points="937.39,-66.73 935,-62 933.92,-67.19 937.39,-66.73"/>
</g>
<!-- n0out1 -->
<!-- n0out2 -->
<!-- n0out1&#45;&gt;n0out2 -->
<!-- n0out3 -->
<!-- n0out2&#45;&gt;n0out3 -->
<!-- n2 -->
<!-- convert_bln_to_lpn -->
<g id="n2" class="node">
<title>n2</title>
<polygon fill="none" stroke="black" points="28,-463.5 28,-488.5 144,-488.5 144,-463.5 28,-463.5"/>
<text text-anchor="start" x="33" y="-472.3" font-family="Serif" font-size="14.00">convert_bln_to_lpn</text>
</g>
<!-- n1&#45;&gt;n2 -->
<!-- BLN -->
<g id="e15" class="edge">
<title>n1:s&#45;&gt;n2:n</title>
<path fill="none" stroke="black" d="M86,-525C86,-510.88 86,-506.1 86,-494.17"/>
<polygon fill="black" stroke="black" points="87.75,-494 86,-489 84.25,-494 87.75,-494"/>
</g>
<!-- n5 -->
<!-- augment_lpn -->
<g id="n5" class="node">
<title>n5</title>
<polygon fill="none" stroke="black" points="208,-402.5 208,-427.5 290,-427.5 290,-402.5 208,-402.5"/>
<text text-anchor="start" x="213" y="-411.3" font-family="Serif" font-size="14.00">augment_lpn</text>
</g>
<!-- n2&#45;&gt;n5 -->
<!-- LPN -->
<g id="e28" class="edge">
<title>n2:s&#45;&gt;n5:n</title>
<path fill="none" stroke="black" d="M86,-464C86,-400.8 219.8,-487.72 227.64,-433.32"/>
<polygon fill="black" stroke="black" points="229.41,-433.11 228,-428 225.92,-432.87 229.41,-433.11"/>
</g>
<!-- n3 -->
<!-- form_type_inf -->
<g id="n3" class="node">
<title>n3</title>
<polygon fill="none" stroke="black" points="565,-402.5 565,-427.5 654,-427.5 654,-402.5 565,-402.5"/>
<text text-anchor="start" x="570" y="-411.3" font-family="Serif" font-size="14.00">form_type_inf</text>
</g>
<!-- n6 -->
<!-- type_s4m1 -->
<g id="n6" class="node">
<title>n6</title>
<polygon fill="none" stroke="black" points="460,-341.5 460,-366.5 531,-366.5 531,-341.5 460,-341.5"/>
<text text-anchor="start" x="465" y="-350.3" font-family="Serif" font-size="14.00">type_s4m1</text>
</g>
<!-- n3&#45;&gt;n6 -->
<!-- LPNType -->
<g id="e30" class="edge">
<title>n3:s&#45;&gt;n6:n</title>
<path fill="none" stroke="black" d="M610,-403C610,-359.39 522.07,-408.02 514.52,-372.33"/>
<polygon fill="black" stroke="black" points="516.22,-371.81 514,-367 512.74,-372.15 516.22,-371.81"/>
</g>
<!-- n10 -->
<!-- type_test -->
<g id="n10" class="node">
<title>n10</title>
<polygon fill="none" stroke="black" points="648,-341.5 648,-366.5 707,-366.5 707,-341.5 648,-341.5"/>
<text text-anchor="start" x="653" y="-350.3" font-family="Serif" font-size="14.00">type_test</text>
</g>
<!-- n3&#45;&gt;n10 -->
<!-- LPNType -->
<g id="e14" class="edge">
<title>n3:s&#45;&gt;n10:n</title>
<path fill="none" stroke="black" d="M610,-403C610,-364.68 685.4,-403.23 692.47,-372.11"/>
<polygon fill="black" stroke="black" points="694.23,-372.15 693,-367 690.74,-371.79 694.23,-372.15"/>
</g>
<!-- n14 -->
<!-- type_cohorts -->
<g id="n14" class="node">
<title>n14</title>
<polygon fill="none" stroke="black" points="549,-341.5 549,-366.5 629,-366.5 629,-341.5 549,-341.5"/>
<text text-anchor="start" x="554" y="-350.3" font-family="Serif" font-size="14.00">type_cohorts</text>
</g>
<!-- n3&#45;&gt;n14 -->
<!-- LPNType -->
<g id="e26" class="edge">
<title>n3:s&#45;&gt;n14:n</title>
<path fill="none" stroke="black" d="M610,-403C610,-388.87 609.22,-384.11 609.04,-372.17"/>
<polygon fill="black" stroke="black" points="610.79,-371.99 609,-367 607.29,-372.01 610.79,-371.99"/>
</g>
<!-- n4 -->
<!-- form_aug_states_s4m1 -->
<g id="n4" class="node">
<title>n4</title>
<polygon fill="none" stroke="black" points="201,-463.5 201,-488.5 338,-488.5 338,-463.5 201,-463.5"/>
<text text-anchor="start" x="206" y="-472.3" font-family="Serif" font-size="14.00">form_aug_states_s4m1</text>
</g>
<!-- n4&#45;&gt;n5 -->
<!-- AugStates -->
<g id="e13" class="edge">
<title>n4:s&#45;&gt;n5:n</title>
<path fill="none" stroke="black" d="M270,-464C270,-449.88 270,-445.1 270,-433.17"/>
<polygon fill="black" stroke="black" points="271.75,-433 270,-428 268.25,-433 271.75,-433"/>
</g>
<!-- n5&#45;&gt;n6 -->
<!-- LPNAug -->
<g id="e23" class="edge">
<title>n5:s&#45;&gt;n6:n</title>
<path fill="none" stroke="black" d="M249,-403C249,-301.78 470.02,-464.13 477.79,-372.18"/>
<polygon fill="black" stroke="black" points="479.55,-372.07 478,-367 476.05,-371.93 479.55,-372.07"/>
</g>
<!-- n15 -->
<!-- stratify_typed_lpn -->
<g id="n15" class="node">
<title>n15</title>
<polygon fill="none" stroke="black" points="506,-280.5 506,-305.5 616,-305.5 616,-280.5 506,-280.5"/>
<text text-anchor="start" x="511" y="-289.3" font-family="Serif" font-size="14.00">stratify_typed_lpn</text>
</g>
<!-- n6&#45;&gt;n15 -->
<!-- LPNTyped -->
<g id="e29" class="edge">
<title>n6:s&#45;&gt;n15:n</title>
<path fill="none" stroke="black" d="M496,-342C496,-321.03 526.91,-327.49 532.23,-311.23"/>
<polygon fill="black" stroke="black" points="534,-311.2 533,-306 530.54,-310.69 534,-311.2"/>
</g>
<!-- n7 -->
<!-- form_test -->
<g id="n7" class="node">
<title>n7</title>
<polygon fill="none" stroke="black" points="662,-463.5 662,-488.5 725,-488.5 725,-463.5 662,-463.5"/>
<text text-anchor="start" x="667" y="-472.3" font-family="Serif" font-size="14.00">form_test</text>
</g>
<!-- n9 -->
<!-- augment_lpn -->
<g id="n9" class="node">
<title>n9</title>
<polygon fill="none" stroke="black" points="674,-402.5 674,-427.5 756,-427.5 756,-402.5 674,-402.5"/>
<text text-anchor="start" x="679" y="-411.3" font-family="Serif" font-size="14.00">augment_lpn</text>
</g>
<!-- n7&#45;&gt;n9 -->
<!-- LPN -->
<g id="e20" class="edge">
<title>n7:s&#45;&gt;n9:n</title>
<path fill="none" stroke="black" d="M694,-464C694,-449.88 694,-445.1 694,-433.17"/>
<polygon fill="black" stroke="black" points="695.75,-433 694,-428 692.25,-433 695.75,-433"/>
</g>
<!-- n8 -->
<!-- form_aug_states_test -->
<g id="n8" class="node">
<title>n8</title>
<polygon fill="none" stroke="black" points="743,-463.5 743,-488.5 869,-488.5 869,-463.5 743,-463.5"/>
<text text-anchor="start" x="748" y="-472.3" font-family="Serif" font-size="14.00">form_aug_states_test</text>
</g>
<!-- n8&#45;&gt;n9 -->
<!-- AugStates -->
<g id="e9" class="edge">
<title>n8:s&#45;&gt;n9:n</title>
<path fill="none" stroke="black" d="M806,-464C806,-430.93 743.45,-459.48 736.61,-433.14"/>
<polygon fill="black" stroke="black" points="738.32,-432.76 736,-428 734.85,-433.17 738.32,-432.76"/>
</g>
<!-- n9&#45;&gt;n10 -->
<!-- LPNAug -->
<g id="e12" class="edge">
<title>n9:s&#45;&gt;n10:n</title>
<path fill="none" stroke="black" d="M715,-403C715,-376.76 669.68,-392.64 663.66,-371.99"/>
<polygon fill="black" stroke="black" points="665.39,-371.73 663,-367 661.92,-372.19 665.39,-371.73"/>
</g>
<!-- n16 -->
<!-- stratify_typed_lpn -->
<g id="n16" class="node">
<title>n16</title>
<polygon fill="none" stroke="black" points="594,-219.5 594,-244.5 704,-244.5 704,-219.5 594,-219.5"/>
<text text-anchor="start" x="599" y="-228.3" font-family="Serif" font-size="14.00">stratify_typed_lpn</text>
</g>
<!-- n10&#45;&gt;n16 -->
<!-- LPNTyped -->
<g id="e22" class="edge">
<title>n10:s&#45;&gt;n16:n</title>
<path fill="none" stroke="black" d="M678,-342C678,-300.74 677.08,-289.1 677.01,-250.38"/>
<polygon fill="black" stroke="black" points="678.76,-250 677,-245 675.26,-250 678.76,-250"/>
</g>
<!-- n11 -->
<!-- form_cohorts -->
<g id="n11" class="node">
<title>n11</title>
<polygon fill="none" stroke="black" points="394,-463.5 394,-488.5 478,-488.5 478,-463.5 394,-463.5"/>
<text text-anchor="start" x="399" y="-472.3" font-family="Serif" font-size="14.00">form_cohorts</text>
</g>
<!-- n13 -->
<!-- augment_lpn -->
<g id="n13" class="node">
<title>n13</title>
<polygon fill="none" stroke="black" points="464,-402.5 464,-427.5 546,-427.5 546,-402.5 464,-402.5"/>
<text text-anchor="start" x="469" y="-411.3" font-family="Serif" font-size="14.00">augment_lpn</text>
</g>
<!-- n11&#45;&gt;n13 -->
<!-- LPN -->
<g id="e19" class="edge">
<title>n11:s&#45;&gt;n13:n</title>
<path fill="none" stroke="black" d="M436,-464C436,-439.21 477.49,-452.45 483.32,-433"/>
<polygon fill="black" stroke="black" points="485.06,-433.19 484,-428 481.59,-432.72 485.06,-433.19"/>
</g>
<!-- n12 -->
<!-- form_aug_states_cohorts -->
<g id="n12" class="node">
<title>n12</title>
<polygon fill="none" stroke="black" points="497,-463.5 497,-488.5 644,-488.5 644,-463.5 497,-463.5"/>
<text text-anchor="start" x="502" y="-472.3" font-family="Serif" font-size="14.00">form_aug_states_cohorts</text>
</g>
<!-- n12&#45;&gt;n13 -->
<!-- AugStates -->
<g id="e21" class="edge">
<title>n12:s&#45;&gt;n13:n</title>
<path fill="none" stroke="black" d="M571,-464C571,-440.39 532.76,-451.48 526.78,-433.29"/>
<polygon fill="black" stroke="black" points="528.46,-432.69 526,-428 525,-433.2 528.46,-432.69"/>
</g>
<!-- n13&#45;&gt;n14 -->
<!-- LPNAug -->
<g id="e24" class="edge">
<title>n13:s&#45;&gt;n14:n</title>
<path fill="none" stroke="black" d="M505,-403C505,-372.28 561.72,-396.42 568.37,-372.12"/>
<polygon fill="black" stroke="black" points="570.12,-372.18 569,-367 566.65,-371.75 570.12,-372.18"/>
</g>
<!-- n14&#45;&gt;n15 -->
<!-- LPNTyped -->
<g id="e31" class="edge">
<title>n14:s&#45;&gt;n15:n</title>
<path fill="none" stroke="black" d="M589,-342C589,-327.88 589,-323.1 589,-311.17"/>
<polygon fill="black" stroke="black" points="590.75,-311 589,-306 587.25,-311 590.75,-311"/>
</g>
<!-- n15&#45;&gt;n16 -->
<!-- LPNTyped -->
<g id="e18" class="edge">
<title>n15:s&#45;&gt;n16:n</title>
<path fill="none" stroke="black" d="M561,-281C561,-251.85 613.73,-273.05 620.33,-250.19"/>
<polygon fill="black" stroke="black" points="622.09,-250.18 621,-245 618.62,-249.73 622.09,-250.18"/>
</g>
<!-- n17 -->
<!-- vectorfield -->
<g id="n17" class="node">
<title>n17</title>
<polygon fill="none" stroke="black" points="615,-158.5 615,-183.5 683,-183.5 683,-158.5 615,-158.5"/>
<text text-anchor="start" x="620" y="-167.3" font-family="Serif" font-size="14.00">vectorfield</text>
</g>
<!-- n16&#45;&gt;n17 -->
<!-- LPNTyped -->
<g id="e25" class="edge">
<title>n16:s&#45;&gt;n17:n</title>
<path fill="none" stroke="black" d="M649,-220C649,-205.88 649,-201.1 649,-189.17"/>
<polygon fill="black" stroke="black" points="650.75,-189 649,-184 647.25,-189 650.75,-189"/>
</g>
<!-- n16&#45;&gt;n20 -->
<!-- LPNTyped -->
<g id="e16" class="edge">
<title>n16:s&#45;&gt;n20:n</title>
<path fill="none" stroke="black" d="M649,-220C649,-195.08 673.79,-201.02 692,-184 745.6,-133.9 806.09,-136.95 808.9,-67.15"/>
<polygon fill="black" stroke="black" points="810.65,-67.03 809,-62 807.15,-66.96 810.65,-67.03"/>
</g>
<!-- n17&#45;&gt;n19 -->
<!-- TVRXN -->
<g id="e17" class="edge">
<title>n17:s&#45;&gt;n19:n</title>
<path fill="none" stroke="black" d="M649,-159C649,-144.88 649,-140.1 649,-128.17"/>
<polygon fill="black" stroke="black" points="650.75,-128 649,-123 647.25,-128 650.75,-128"/>
</g>
<!-- n18&#45;&gt;n19 -->
<!-- RateFuncVect -->
<g id="e27" class="edge">
<title>n18:s&#45;&gt;n19:n</title>
<path fill="none" stroke="black" d="M799,-281C799,-204.52 724.61,-201.42 721.13,-128.38"/>
<polygon fill="black" stroke="black" points="722.87,-127.96 721,-123 719.37,-128.04 722.87,-127.96"/>
</g>
<!-- n18&#45;&gt;n20 -->
<!-- RateFuncVect -->
<g id="e11" class="edge">
<title>n18:s&#45;&gt;n20:n</title>
<path fill="none" stroke="black" d="M799,-281C799,-181.85 856.91,-163.55 858.95,-67.25"/>
<polygon fill="black" stroke="black" points="860.7,-67.02 859,-62 857.2,-66.98 860.7,-67.02"/>
</g>
<!-- n19&#45;&gt;n20 -->
<!-- TVODEProb -->
<g id="e10" class="edge">
<title>n19:s&#45;&gt;n20:n</title>
<path fill="none" stroke="black" d="M685,-98C685,-31.74 825.96,-124.77 833.67,-67.22"/>
<polygon fill="black" stroke="black" points="835.43,-67.1 834,-62 831.94,-66.88 835.43,-67.1"/>
</g>
<!-- n20&#45;&gt;n0out1 -->
<!-- CntrlParamVect -->
<g id="e32" class="edge">
<title>n20:s&#45;&gt;n0out1:n</title>
<path fill="none" stroke="black" d="M815,-37C815,-22.79 811.88,-18.16 811.15,-6.19"/>
<polygon fill="black" stroke="black" points="812.9,-5.95 811,-1 809.4,-6.05 812.9,-5.95"/>
</g>
<!-- n20&#45;&gt;n0out2 -->
<!-- TVODESol -->
<g id="e33" class="edge">
<title>n20:s&#45;&gt;n0out2:n</title>
<path fill="none" stroke="black" d="M853,-37C853,-22.88 853,-18.1 853,-6.17"/>
<polygon fill="black" stroke="black" points="854.75,-6 853,-1 851.25,-6 854.75,-6"/>
</g>
<!-- n20&#45;&gt;n0out3 -->
<!-- TimeVect -->
<g id="e34" class="edge">
<title>n20:s&#45;&gt;n0out3:n</title>
<path fill="none" stroke="black" d="M891,-37C891,-22.79 894.12,-18.16 894.85,-6.19"/>
<polygon fill="black" stroke="black" points="896.6,-6.05 895,-1 893.1,-5.95 896.6,-6.05"/>
</g>
</g>
</svg>
